<svg xmlns="http://www.w3.org/2000/svg" xmlns:xlink="http://www.w3.org/1999/xlink" width="118" zoomAndPan="magnify" viewBox="0 0 88.5 77.999999" height="104" preserveAspectRatio="xMidYMid meet" version="1.0"><defs><g/><clipPath id="17cd7ebd02"><path d="M 0 0.21875 L 87.257812 0.21875 L 87.257812 77.035156 L 0 77.035156 Z M 0 0.21875 " clip-rule="nonzero"/></clipPath></defs><g clip-path="url(#17cd7ebd02)"><path fill="#ffffff" d="M 84.878906 62.902344 L 65.996094 62.902344 C 65.996094 62.902344 65.996094 62.820312 65.996094 62.820312 C 65.996094 59.332031 64.730469 56.078125 62.585938 53.542969 L 62.585938 2.613281 C 62.585938 1.265625 61.554688 0.234375 60.207031 0.234375 C 58.859375 0.234375 57.828125 1.265625 57.828125 2.613281 L 57.828125 44.101562 L 51.878906 14.433594 C 50.371094 6.976562 43.707031 1.503906 36.09375 1.503906 L 15.152344 1.503906 C 13.800781 1.503906 12.769531 2.535156 12.769531 3.882812 L 12.769531 36.644531 L 7.613281 36.644531 C 3.410156 36.644531 0 39.976562 0 44.179688 L 0 59.964844 C 0 63.140625 1.984375 65.914062 4.917969 67.027344 C 5.316406 72.660156 10.074219 77.101562 15.863281 77.101562 C 21.417969 77.101562 26.019531 72.976562 26.730469 67.660156 L 38.074219 67.660156 C 40.058594 73.132812 45.375 77.101562 51.5625 77.101562 C 57.75 77.101562 63.0625 73.132812 65.125 67.660156 L 84.878906 67.660156 C 86.226562 67.660156 87.257812 66.628906 87.257812 65.28125 C 87.257812 63.933594 86.226562 62.902344 84.878906 62.902344 Z M 15.785156 72.339844 C 12.375 72.339844 9.597656 69.566406 9.597656 66.234375 C 9.597656 62.820312 12.375 60.125 15.785156 60.125 C 19.195312 60.125 21.972656 62.902344 21.972656 66.234375 C 22.050781 69.566406 19.277344 72.339844 15.785156 72.339844 Z M 37.125 62.902344 L 26.257812 62.902344 C 24.828125 58.539062 20.703125 55.285156 15.785156 55.285156 C 11.183594 55.285156 7.296875 58.0625 5.632812 62.027344 C 5.078125 61.472656 4.679688 60.761719 4.679688 59.964844 L 4.679688 44.179688 C 4.679688 42.59375 5.949219 41.40625 7.535156 41.40625 L 33.238281 41.40625 L 33.238281 54.730469 C 33.238281 57.269531 34.902344 59.492188 37.28125 60.203125 C 37.125 61.078125 37.042969 61.949219 37.042969 62.820312 C 37.125 62.820312 37.125 62.902344 37.125 62.902344 Z M 39.105469 55.683594 C 38.550781 55.605469 38.15625 55.207031 38.15625 54.652344 L 38.15625 38.945312 C 38.15625 37.597656 37.125 36.566406 35.773438 36.566406 L 25.464844 36.566406 C 24.113281 36.566406 23.003906 35.535156 22.84375 34.1875 L 21.734375 18.320312 C 21.578125 16.972656 20.464844 15.941406 19.117188 15.941406 L 17.53125 15.941406 L 17.53125 6.34375 L 36.09375 6.34375 C 41.488281 6.34375 46.167969 10.152344 47.277344 15.386719 L 53.941406 48.703125 C 53.066406 48.542969 52.355469 48.464844 51.5625 48.464844 C 46.246094 48.464844 41.566406 51.398438 39.105469 55.683594 Z M 51.5625 72.339844 C 46.246094 72.339844 41.882812 68.058594 41.882812 62.820312 C 41.882812 57.585938 46.246094 53.304688 51.5625 53.304688 C 56.875 53.304688 61.238281 57.585938 61.238281 62.820312 C 61.238281 68.058594 56.875 72.339844 51.5625 72.339844 Z M 51.5625 72.339844 " fill-opacity="1" fill-rule="nonzero"/></g><g fill="#ffffff" fill-opacity="1"><g transform="translate(16.8118, 28.441319)"><g><path d="M 1.5625 -1.828125 L 0.640625 -1.828125 L 0.453125 -5.5 L 1.75 -5.5 Z M 0.4375 -0.53125 C 0.4375 -0.75 0.492188 -0.910156 0.609375 -1.015625 C 0.722656 -1.117188 0.890625 -1.171875 1.109375 -1.171875 C 1.316406 -1.171875 1.472656 -1.113281 1.578125 -1 C 1.691406 -0.894531 1.75 -0.738281 1.75 -0.53125 C 1.75 -0.332031 1.691406 -0.175781 1.578125 -0.0625 C 1.460938 0.0390625 1.304688 0.09375 1.109375 0.09375 C 0.890625 0.09375 0.722656 0.0390625 0.609375 -0.0625 C 0.492188 -0.175781 0.4375 -0.332031 0.4375 -0.53125 Z M 0.4375 -0.53125 "/></g></g></g></svg>